<svg xmlns="http://www.w3.org/2000/svg" style="display:none">
  <symbol id="icon-wifi" viewBox="0 0 24 24">
    <path fill="currentColor" d="M12 18.5c.9 0 1.6-.7 1.6-1.6 0-.9-.7-1.6-1.6-1.6s-1.6.7-1.6 1.6c0 .9.7 1.6 1.6 1.6zm4.9-2.5c1.5-1.1 2.8-2.6 3.6-4.4-.9-.7-1.9-1.3-3-1.8-1.6 3.1-4.8 5.3-8.5 5.3-.9 0-1.8-.1-2.6-.4 3.1 1.1 6.6.7 10.5 1.3zM2.5 10.8c.8 1.9 2.1 3.4 3.6 4.4 3.9.7 7.4.2 10.5-1.3-1 .4-2.1.6-3.2.6-3.9 0-7.2-2.2-8.8-5.3-1 .4-1.9 1-2.1 1.6z" />
  </symbol>

  <symbol id="icon-study" viewBox="0 0 24 24">
    <path fill="currentColor" d="M3 6v12h18V6H3zm2 2h14v2H5V8zm0 4h8v2H5v-2z"/>
  </symbol>

  <symbol id="icon-food" viewBox="0 0 24 24">
    <path fill="currentColor" d="M12 2C8.14 2 5 5.14 5 9v6c0 3.86 3.14 7 7 7s7-3.14 7-7V9c0-3.86-3.14-7-7-7zM9 9h6v2H9V9z"/>
  </symbol>

  <symbol id="icon-bed" viewBox="0 0 24 24">
    <path fill="currentColor" d="M21 10V7c0-1.1-.9-2-2-2H5C3.9 5 3 5.9 3 7v10H1v2h2v1h2v-1h12v1h2v-1h2v-2h-2v-6h-2zM5 7h14v3H5V7z"/>
  </symbol>

  <symbol id="icon-phone" viewBox="0 0 24 24">
    <path fill="currentColor" d="M6.62 10.79a15.053 15.053 0 006.59 6.59l2.2-2.2a1 1 0 011.01-.24c1.12.37 2.33.57 3.57.57a1 1 0 011 1V20a1 1 0 01-1 1C10.07 21 3 13.93 3 4a1 1 0 011-1h3.5a1 1 0 011 1c0 1.24.2 2.45.57 3.57.15.47.05 1.01-.24 1.29l-2.21 2.21z"/>
  </symbol>

  <symbol id="icon-map" viewBox="0 0 24 24">
    <path fill="currentColor" d="M20.5 3l-5.5 2.5L9 3 3.5 5.5v15L9 18l6 2.5 5.5-2.5v-15zM9 5.2l5 2.2v11.3l-5-2.2V5.2z"/>
  </symbol>

  <symbol id="icon-whatsapp" viewBox="0 0 24 24">
    <path fill="currentColor" d="M16.7 13.6c-.3-.2-1.8-.9-2-.9-.2-.1-.4-.1-.6.2-.1.3-.7.9-.9 1.1-.2.3-.4.3-.7.1-1-.5-2.1-1.8-2.8-3.2-.2-.4 0-.6.2-.8.2-.2.3-.4.5-.6.2-.2.1-.4 0-.6-.1-.2-.6-1.4-.8-1.9-.2-.5-.4-.4-.6-.4-.5 0-1 .1-1.5.2-.4.1-1 .4-1 1.1s1.1 2.6 1.3 2.8c.2.3 2.2 3.6 5.4 4.9 3.3 1.4 3.3.9 3.9.8.6-.1 1.8-.7 2-1.4.2-.7.2-1.3.2-1.4 0-.1-.2-.2-.6-.4zM12 2C6.5 2 2 6.5 2 12c0 2.1.7 4 1.9 5.6L2 22l4.6-1.9C8 21.3 9.9 22 12 22c5.5 0 10-4.5 10-10S17.5 2 12 2z"/>
  </symbol>
</svg>